<?xml version="1.0" encoding="UTF-8"?>
<!-- Isotipo de mariposa de Liliana (extraído del logo oficial). Color de marca #e42320. -->
<svg xmlns="http://www.w3.org/2000/svg" viewBox="12 11 130 84">
  <g fill="#e42320">
    <path d="M113.71,78.7c-12.62-2.11-29.3-7.31-36.64-18.43-7.34,11.12-24.02,16.32-36.64,18.43-3.33.56-6.07,2.93-7.13,6.14l-2.51,7.52c30.31-3.14,41.88-15.87,46.28-25.66,4.4,9.79,15.97,22.52,46.28,25.66l-2.51-7.52c-1.07-3.2-3.81-5.58-7.14-6.14Z"/>
    <path d="M131.12,37.8c-7.28.25-46.8,2.2-54.05,15.63-7.25-13.43-46.77-15.38-54.04-15.63-.64-.02-1.14.54-1.07,1.17.79,7.26,6.06,10.03,8.98,11.01,1.03.35,2.11.48,3.2.44,18.73-.82,35.87,2.82,41.63,4.2-4.43,1.07-15.62,3.47-29.09,4.14-3.79.19-7.09,2.66-8.3,6.26l-1.58,5.46c14.57-1.51,35.22-5.26,40.27-14.65,5.05,9.39,25.7,13.14,40.27,14.65l-1.58-5.46c-1.2-3.6-4.5-6.07-8.29-6.26-13.47-.67-24.66-3.07-29.09-4.14,5.75-1.38,22.9-5.02,41.62-4.2,1.09.04,2.17-.1,3.2-.44,2.93-.98,8.2-3.75,8.98-11.01.07-.64-.42-1.19-1.06-1.17Z"/>
    <path d="M137.3,15.56c-41.2.26-55.37,15.58-60.22,26.78-4.85-11.2-19.02-26.52-60.22-26.78-.59,0-1.08.48-1.05,1.06.11,3.13,1.31,12.11,11.44,12.07,9.44-.03,39.46,3.78,49.83,19.93,10.37-16.15,40.39-19.97,49.83-19.93,10.14.04,11.34-8.94,11.44-12.07.02-.58-.47-1.06-1.05-1.06Z"/>
  </g>
</svg>
