<?xml version="1.0" encoding="UTF-8"?>
<svg id="Capa_1" xmlns="http://www.w3.org/2000/svg" version="1.1" viewBox="0 0 454.72 107.89">
  <!-- Generator: Adobe Illustrator 30.4.0, SVG Export Plug-In . SVG Version: 2.1.4 Build 226)  -->
  <defs>
    <style>
      .st0 {
        fill: #e42320;
      }
    </style>
  </defs>
  <g>
    <path class="st0" d="M113.71,78.7c-12.62-2.11-29.3-7.31-36.64-18.43-7.34,11.12-24.02,16.32-36.64,18.43-3.33.56-6.07,2.93-7.13,6.14l-2.51,7.52c30.31-3.14,41.88-15.87,46.28-25.66,4.4,9.79,15.97,22.52,46.28,25.66l-2.51-7.52c-1.07-3.2-3.81-5.58-7.14-6.14Z"/>
    <path class="st0" d="M131.12,37.8c-7.28.25-46.8,2.2-54.05,15.63-7.25-13.43-46.77-15.38-54.04-15.63-.64-.02-1.14.54-1.07,1.17.79,7.26,6.06,10.03,8.98,11.01,1.03.35,2.11.48,3.2.44,18.73-.82,35.87,2.82,41.63,4.2-4.43,1.07-15.62,3.47-29.09,4.14-3.79.19-7.09,2.66-8.3,6.26l-1.58,5.46c14.57-1.51,35.22-5.26,40.27-14.65,5.05,9.39,25.7,13.14,40.27,14.65l-1.58-5.46c-1.2-3.6-4.5-6.07-8.29-6.26-13.47-.67-24.66-3.07-29.09-4.14,5.75-1.38,22.9-5.02,41.62-4.2,1.09.04,2.17-.1,3.2-.44,2.93-.98,8.2-3.75,8.98-11.01.07-.64-.42-1.19-1.06-1.17Z"/>
    <path class="st0" d="M137.3,15.56c-41.2.26-55.37,15.58-60.22,26.78-4.85-11.2-19.02-26.52-60.22-26.78-.59,0-1.08.48-1.05,1.06.11,3.13,1.31,12.11,11.44,12.07,9.44-.03,39.46,3.78,49.83,19.93,10.37-16.15,40.39-19.97,49.83-19.93,10.14.04,11.34-8.94,11.44-12.07.02-.58-.47-1.06-1.05-1.06Z"/>
  </g>
  <g>
    <path class="st0" d="M323.33,39.43l-8.18,3.65c-4.52-2.9-9.68-4.41-15.28-4.41-16.57,0-28.41,11.94-28.41,27.76s10.98,26.9,26.04,26.9c6.56,0,11.51-2.26,15.17-5.16v2.82c0,.76.62,1.38,1.38,1.38h9.84c.76,0,1.38-.62,1.38-1.38v-50.3c0-1-1.03-1.66-1.94-1.26ZM310.63,74.84c0,.75-.3,1.47-.83,2-1.91,1.9-5.14,3.7-9.31,3.79-7.72.16-13.95-6.09-14.26-13.8-.34-8.51,5.4-15.46,14.38-15.46,3.18,0,6.17.87,8.41,2.03.99.51,1.62,1.53,1.62,2.65v18.79Z"/>
    <path class="st0" d="M437.73,39.43l-8.18,3.65c-4.52-2.9-9.68-4.41-15.28-4.41-16.57,0-28.41,11.94-28.41,27.76s10.98,26.9,26.04,26.9c6.56,0,11.51-2.26,15.17-5.16v2.82c0,.76.62,1.38,1.38,1.38h9.84c.76,0,1.38-.62,1.38-1.38v-50.3c0-1-1.03-1.66-1.94-1.26ZM425.04,74.84c0,.75-.3,1.47-.83,2-1.91,1.9-5.14,3.7-9.31,3.79-7.72.16-13.95-6.09-14.26-13.8-.34-8.51,5.4-15.46,14.38-15.46,3.18,0,6.17.87,8.41,2.03.99.51,1.62,1.53,1.62,2.65v18.79Z"/>
    <path class="st0" d="M358.52,38.57c-6.03,0-11.19,2.26-14.96,5.7v-4.43c0-.95-.94-1.61-1.83-1.3l-8.07,3.62c-1.61.57-2.68,2.08-2.68,3.79v45.04c0,.76.62,1.38,1.38,1.38h11.88c.76,0,1.38-.62,1.38-1.38v-29.94c0-5.19,4.05-9.58,9.24-9.78.15,0,.3,0,.44,0,6.24,0,9.79,4.84,9.79,10.54v29.18c0,.76.62,1.38,1.38,1.38h11.88c.76,0,1.38-.62,1.38-1.38v-29.29c0-14.1-7.64-23.13-21.2-23.13Z"/>
    <g>
      <path class="st0" d="M213.64,14.73c-5,0-8.67,4.11-8.67,8.78s3.67,8.67,8.67,8.67,8.78-4.11,8.78-8.67-3.67-8.78-8.78-8.78Z"/>
      <path class="st0" d="M219.88,37.91h-9.54c-2.29,0-4.15,1.86-4.15,4.15v48.88c0,.79.64,1.42,1.42,1.42h12.27c.79,0,1.42-.64,1.42-1.42v-51.61c0-.78-.64-1.42-1.42-1.42Z"/>
    </g>
    <g>
      <path class="st0" d="M264.25,37.91h-9.54c-2.29,0-4.15,1.86-4.15,4.15v48.88c0,.79.64,1.42,1.42,1.42h12.27c.79,0,1.42-.64,1.42-1.42v-51.61c0-.78-.64-1.42-1.42-1.42Z"/>
      <path class="st0" d="M258,14.73c-5,0-8.67,4.11-8.67,8.78s3.67,8.67,8.67,8.67,8.78-4.11,8.78-8.67-3.67-8.78-8.78-8.78Z"/>
    </g>
    <path class="st0" d="M197.89,79.1h-29.29V27.1h0c-.53-10.94-10.38-12.3-13.89-12.42-.68-.02-1.23.55-1.23,1.23.02,3.95.02,11.19.02,11.19h0v51.98c0,7.5,6.08,13.57,13.57,13.57h30.88c.68,0,1.22-.55,1.22-1.22l-.08-11.12c0-.67-.55-1.21-1.22-1.21Z"/>
    <path class="st0" d="M243.5,16.79c0-.68-.55-1.25-1.23-1.23-3.51.12-13.37,1.48-13.89,12.42h0,0s0,0,0,0v63.46c0,.67.54,1.22,1.22,1.22h12.68c.67,0,1.22-.54,1.22-1.22V27.98h0s0-.22,0-.57v-5.21c0-1.89,0-3.89.02-5.4Z"/>
  </g>
</svg>